<svg xmlns="http://www.w3.org/2000/svg" viewBox="0 0 500 500" fill="currentColor"><path d="M421.9 171.9c21.5 0 39.9 7.6 55.2 22.9S500 228.5 500 250v125c0 4.6-1.5 8.3-4.4 11.2s-6.7 4.4-11.2 4.4h-62.5v93.8c0 4.6-1.5 8.3-4.4 11.2s-6.7 4.4-11.2 4.4H93.8c-4.6 0-8.3-1.5-11.2-4.4s-4.4-6.7-4.4-11.2v-93.8H15.6c-4.6 0-8.3-1.5-11.2-4.4S0 379.6 0 375V250c0-21.5 7.6-39.9 22.9-55.2s33.7-22.9 55.2-22.9V31.2c0-8.5 2.9-15.8 8.8-22S99.6 0 107.4 0h216.8c13 0 24.1 4.6 33.2 13.7l50.8 50.8c9.1 9.1 13.7 20.2 13.7 33.2v74.2zm31.2 171.9V250c0-8.5-3.1-15.8-9.3-22s-13.5-9.3-22-9.3H78.1c-8.5 0-15.8 3.1-22 9.3s-9.3 13.5-9.3 22v93.8h406.3zM125 46.9v125h250v-62.5h-46.9c-4.6 0-8.3-1.5-11.2-4.4s-4.4-6.7-4.4-11.2V46.9H125zm250 406.2v-62.5H125v62.5h250zm15.6-195.3c6.5 0 12 2.3 16.6 6.8s6.8 10.1 6.8 16.6-2.3 12-6.8 16.6-10.1 6.8-16.6 6.8-12-2.3-16.6-6.8-6.8-10.1-6.8-16.6 2.3-12 6.8-16.6 10.1-6.8 16.6-6.8z"/></svg>