<svg xmlns="http://www.w3.org/2000/svg" viewBox="0 0 500 500" fill="currentColor"><path d="M373 78.1h87.9c6.5 0 12 2.3 16.6 6.8s6.8 10.1 6.8 16.6v11.7c0 3.3-1.1 6-3.4 8.3s-5 3.4-8.3 3.4H457l-31.2 332c-1.3 12.4-6.3 22.6-15.1 30.8S391.3 500 378.9 500H121.1c-12.4 0-22.9-4.1-31.7-12.2S75.5 469.4 74.2 457L43 125H27.3c-3.3 0-6-1.1-8.3-3.4s-3.4-5-3.4-8.3v-11.7c0-6.5 2.3-12 6.8-16.6s10.1-6.8 16.6-6.8h88l33.2-55.7c4.6-7.2 10.4-12.7 17.6-16.6s15-5.9 23.4-5.9h97.7c8.5 0 16.3 2 23.4 5.9s13 9.4 17.6 16.6L373 78.1zm5.9 375L409.2 125H90.8l30.3 328.1h257.8zM201.2 46.9l-19.5 31.2h136.7l-19.5-31.2h-97.7z"/></svg>