<svg xmlns="http://www.w3.org/2000/svg" viewBox="0 0 500 500" fill="currentColor"><path d="M430 5.9c11-5.9 22.4-7.4 34.2-4.4s21 9.3 27.9 19.1 9.3 20.8 7.3 33.2L441.7 433c-2.6 15-10.4 26.1-23.5 33.2-7.2 3.9-14.7 5.9-22.5 5.9-6.5 0-12.7-1-18.6-2.9l-109.4-45.9-42 58.6C216.6 493 205.3 499 192 500c-13.4 1-25.2-2.9-35.7-11.7-10.4-8.8-15.6-20.4-15.6-34.7v-82.1L29.3 324.4c-11.7-4.6-20-12.4-24.9-23.5-4.9-11.1-5.7-22.3-2.4-33.7 3.3-11.4 10.4-20.4 21.5-26.9L430 5.9zm-34.2 419.2l57.7-378.2L46.9 281.4l105.5 44 206.2-180.8c4.6-3.9 9.5-5.1 14.7-3.4 5.2 1.6 8.8 4.9 10.7 9.8s1.3 9.6-2 14.2L245.3 363.5l150.5 61.6zm-208.2 28.3l36.2-48.9-36.2-14.7v63.6z"/></svg>