<svg xmlns="http://www.w3.org/2000/svg" viewBox="0 0 20 18" fill="currentColor"><path d="M18.064 5.66c-.08-.003-.148-.009-.216-.009h-4.76a1.17 1.17 0 01-.245-.02.444.444 0 01-.356-.438c0-.214.138-.395.35-.443.085-.019.176-.022.265-.022h4.962c.004-.08.011-.14.011-.202l.001-2.198v-.095c-.006-.26-.058-.314-.317-.314h-4.797a.45.45 0 01-.421-.247.421.421 0 01.018-.453c.097-.153.241-.216.421-.215.503.003 1.007.001 1.51.001 1.076 0 2.153.005 3.23-.002.432-.002.756.189 1.017.512.183.226.26.488.258.78-.006.784-.002 1.568-.002 2.351v7.51c0 1.127-.017 2.254.007 3.38.015.727-.69 1.314-1.297 1.303-1.567-.027-3.134-.01-4.701-.008-.194 0-.352-.056-.452-.228a.451.451 0 01.39-.683c.44-.009.88-.003 1.32-.003h3.458c.058 0 .116.002.172-.008.105-.018.172-.078.18-.19.003-.038.005-.077.005-.115v-2.35c0-.038-.005-.075-.01-.134-.063-.004-.124-.011-.185-.011l-4.682-.001c-.12 0-.243 0-.36-.024a.436.436 0 01-.351-.44.444.444 0 01.355-.438c.08-.017.164-.02.246-.02 1.58-.002 3.16-.002 4.74-.002h.236z"/><path d="M18.064 5.66c-.08-.003-.148-.009-.216-.009h-4.76a1.17 1.17 0 01-.245-.02.444.444 0 01-.356-.438c0-.214.138-.395.35-.443.085-.019.176-.022.265-.022h4.962c.004-.08.011-.14.011-.202l.001-2.198v-.095c-.006-.26-.058-.314-.317-.314h-4.797a.45.45 0 01-.421-.247.421.421 0 01.018-.453c.097-.153.241-.216.421-.215.503.003 1.007.001 1.51.001 1.076 0 2.153.005 3.23-.002.432-.002.756.189 1.017.512.183.226.26.488.258.78-.006.784-.002 1.568-.002 2.351v7.51c0 1.127-.017 2.254.007 3.38.015.727-.69 1.314-1.297 1.303-1.567-.027-3.134-.01-4.701-.008-.194 0-.352-.056-.452-.228a.451.451 0 01.39-.683c.44-.009.88-.003 1.32-.003h3.458c.058 0 .116.002.172-.008.105-.018.172-.078.18-.19.003-.038.005-.077.005-.115v-2.35c0-.038-.005-.075-.01-.134-.063-.004-.124-.011-.185-.011l-4.682-.001c-.12 0-.243 0-.36-.024a.436.436 0 01-.351-.44.444.444 0 01.355-.438c.08-.017.164-.02.246-.02 1.58-.002 3.16-.002 4.74-.002h.236zM6.907 15.91h3.7c.003-.076.01-.15.01-.223.002-1.433.002-2.866.003-4.3 0-.076 0-.154.015-.227a.442.442 0 01.485-.365.428.428 0 01.41.424c.01.414.006.828.007 1.242 0 1.242-.01 2.484.004 3.727.005.453-.155.653-.645.648a230.402 230.402 0 00-4.377 0c-.376.003-.564-.238-.564-.561.006-4.058.004-8.116.004-12.174V1.617c0-.07 0-.141.01-.21.038-.25.203-.397.457-.4.407-.004.815-.002 1.223-.002 1.108 0 2.217.01 3.325-.005.347-.005.598.183.57.626-.022.374-.008.751-.008 1.127v3.708c0 .063 0 .127-.008.19a.44.44 0 01-.386.389c-.217.025-.42-.089-.484-.29-.03-.094-.038-.2-.038-.3-.002-1.427-.001-2.854 0-4.281v-.237H6.918c-.045.135-.058 13.725-.012 13.978z"/><path d="M6.907 15.91h3.7c.003-.076.01-.15.01-.223.002-1.433.002-2.866.003-4.3 0-.076 0-.154.015-.227a.442.442 0 01.485-.365.428.428 0 01.41.424c.01.414.006.828.007 1.242 0 1.242-.01 2.484.004 3.727.005.453-.155.653-.645.648a230.402 230.402 0 00-4.377 0c-.376.003-.564-.238-.564-.561.006-4.058.004-8.116.004-12.174V1.617c0-.07 0-.141.01-.21.038-.25.203-.397.457-.4.407-.004.815-.002 1.223-.002 1.108 0 2.217.01 3.325-.005.347-.005.598.183.57.626-.022.374-.008.751-.008 1.127v3.708c0 .063 0 .127-.008.19a.44.44 0 01-.386.389c-.217.025-.42-.089-.484-.29-.03-.094-.038-.2-.038-.3-.002-1.427-.001-2.854 0-4.281v-.237H6.918c-.045.135-.058 13.725-.012 13.978zM2.234 4.728h.402c.618 0 1.236-.002 1.854 0 .262.002.423.106.496.311a.447.447 0 01-.305.586 1.105 1.105 0 01-.265.025c-.637.002-1.274 0-1.911 0h-.242c-.05.155-.059 2.59-.01 2.811h.2c.688 0 1.376.003 2.064 0 .215-.001.372.084.459.278.136.306-.085.631-.432.634-.523.005-1.045.001-1.568.001h-.738v2.8c.073.004.147.01.22.01.657.001 1.313 0 1.97.002.075 0 .153.003.227.018a.452.452 0 01-.004.885 1.184 1.184 0 01-.227.018c-.663.002-1.326.001-1.988.002-.063 0-.125.005-.197.009-.006.059-.015.108-.015.157-.001.77-.002 1.541 0 2.312 0 .283.05.33.337.33.65 0 1.3.003 1.95 0 .186-.001.337.059.435.221.188.311-.023.685-.396.69-.472.007-.943.002-1.415.002-.197 0-.395.002-.592 0-.651-.003-1.228-.56-1.236-1.21-.009-.765-.003-1.53-.004-2.294L1.3 10.5c0-.388.004-.777.004-1.165V5.532c0-1.082-.002-2.165.002-3.247a1.288 1.288 0 01.963-1.249c.079-.02.163-.028.245-.028.669-.003 1.338.006 2.007-.006.23-.005.486.166.494.45.008.266-.201.465-.496.466-.637.003-1.274 0-1.911 0-.064 0-.128-.002-.19.006-.116.015-.186.078-.191.2-.002.045-.005.09-.005.134v2.275c0 .056.007.111.012.195z"/><path d="M2.234 4.728h.402c.618 0 1.236-.002 1.854 0 .262.002.423.106.496.311a.447.447 0 01-.305.586 1.105 1.105 0 01-.265.025c-.637.002-1.274 0-1.911 0h-.242c-.05.155-.059 2.59-.01 2.811h.2c.688 0 1.376.003 2.064 0 .215-.001.372.084.459.278.136.306-.085.631-.432.634-.523.005-1.045.001-1.568.001h-.738v2.8c.073.004.147.01.22.01.657.001 1.313 0 1.97.002.075 0 .153.003.227.018a.452.452 0 01-.004.885 1.184 1.184 0 01-.227.018c-.663.002-1.326.001-1.988.002-.063 0-.125.005-.197.009-.006.059-.015.108-.015.157-.001.77-.002 1.541 0 2.312 0 .283.05.33.337.33.65 0 1.3.003 1.95 0 .186-.001.337.059.435.221.188.311-.023.685-.396.69-.472.007-.943.002-1.415.002-.197 0-.395.002-.592 0-.651-.003-1.228-.56-1.236-1.21-.009-.765-.003-1.53-.004-2.294L1.3 10.5c0-.388.004-.777.004-1.165V5.532c0-1.082-.002-2.165.002-3.247a1.288 1.288 0 01.963-1.249c.079-.02.163-.028.245-.028.669-.003 1.338.006 2.007-.006.23-.005.486.166.494.45.008.266-.201.465-.496.466-.637.003-1.274 0-1.911 0-.064 0-.128-.002-.19.006-.116.015-.186.078-.191.2-.002.045-.005.09-.005.134v2.275c0 .056.007.111.012.195zm12.34 4.646H9.321c-.038 0-.076.002-.115 0a.445.445 0 01-.441-.455.437.437 0 01.44-.455c.344-.007.689-.003 1.032-.003h4.379c-.056-.065-.086-.107-.122-.143-.31-.311-.622-.621-.932-.933a.447.447 0 01-.117-.474.432.432 0 01.356-.309c.179-.034.32.043.444.168.503.506 1.008 1.01 1.513 1.514.094.095.192.186.287.28.224.217.225.484.004.704-.6.597-1.201 1.194-1.8 1.793-.124.124-.263.205-.443.173a.432.432 0 01-.36-.304.445.445 0 01.112-.476c.3-.303.603-.604.904-.906.044-.044.085-.091.128-.137z"/><path d="M14.574 9.374H9.321c-.038 0-.076.002-.115 0a.445.445 0 01-.441-.455.437.437 0 01.44-.455c.344-.007.689-.003 1.032-.003h4.379c-.056-.065-.086-.107-.122-.143-.31-.311-.622-.621-.932-.933a.447.447 0 01-.117-.474.432.432 0 01.356-.309c.179-.034.32.043.444.168.503.506 1.008 1.01 1.513 1.514.094.095.192.186.287.28.224.217.225.484.004.704-.6.597-1.201 1.194-1.8 1.793-.124.124-.263.205-.443.173a.432.432 0 01-.36-.304.445.445 0 01.112-.476c.3-.303.603-.604.904-.906.044-.044.085-.091.128-.137z"/></svg>