<svg xmlns="http://www.w3.org/2000/svg" viewBox="0 0 323.6 424.1" fill="currentColor"><defs><clipPath id="a"><path d="M0 0h323.6v424.1H0z"/></clipPath></defs><g clip-path="url(#a)"><clipPath id="b"><path d="M0 423.2h323.6V0L161.8 117.6 0 0v423.2z"/></clipPath><g clip-path="url(#b)"><path d="M733.8 80.3l-346-243.8L727.3 89.3l6.5-9zm-6.9 9.5L504.7-63.3 720.5 98.8l6.4-9zm-13.8 19L490.9-44.3l215.8 162.1 6.4-9zm-13.7 19L477.1-25.3l215.8 162 6.5-8.9zM720 99.3L497.8-53.8l215.8 162.1 6.4-9zm-13.8 19L484-34.8l215.8 162.1 6.4-9zm-13.7 19L470.3-15.9l215.8 162.1 6.4-8.9zm-13.8 19L456.5 3.1l215.8 162.1 6.4-8.9zm6.9-9.5L463.4-6.4l215.8 162.1 6.4-8.9zm-13.7 19L449.6 12.6l215.8 162.1 6.5-8.9zm-13.8 19L435.9 31.6l215.8 162.1 6.4-8.9zm-13.8 19L422.1 50.6l215.8 162.1 6.4-8.9zm20.7-28.5L442.7 22.1l215.8 162.1 6.5-8.9zm-13.8 19L429 41.1l215.8 162.1 6.4-8.9zm-13.8 19L415.2 60.1 631 222.2l6.4-8.9zm-13.7 19l-346-243.8 339.5 252.7 6.5-8.9zm6.9-9.5L408.3 69.6l215.8 162.1 6.5-8.9zm-13.8 19L270.8-2l339.6 252.7 6.4-8.9zm-13.7 19L257.1 17l339.5 252.7 6.5-8.9zm-13.8 19L243.3 36l339.6 252.7 6.4-8.9zm20.6-28.5L264 7.5l339.5 252.7 6.4-8.9zm-13.7 19l-346-243.8 339.5 252.7 6.5-8.9zm-20.7 28.5L229.5 55l339.6 252.7 6.4-8.9zm-13.7 19l-346-243.9 339.5 252.8 6.5-8.9zm20.6-28.5l-346-243.8L576 298.2l6.4-8.9zm-13.7 19l-346-243.9 339.5 252.8 6.5-8.9zM548 336.8L202 92.9l339.6 252.8 6.4-8.9zm-13.7 19l-346-243.9 339.5 252.8 6.5-8.9zm20.6-28.5l-346-243.9 339.5 252.8 6.5-8.9zm-13.8 19l-346-243.9 339.6 252.8 6.4-8.9zm-13.7 19l-346-243.9 339.5 252.8 6.5-8.9zm-6.9 9.5l-346-243.9L514 383.7l6.5-8.9zm-10.6 6.6l-346-243.8 339.5 252.7 6.5-8.9zm-6.9 9.5L157 147.1l339.5 252.7 6.5-8.9zm-13.8 19l-346-243.8 339.6 252.7 6.4-8.9zm-13.7 19l-346-243.8L469 437.8l6.5-8.9zm20.6-28.5l-346-243.8 339.6 252.7 6.4-8.9zm-13.7 19l-346-243.8 339.5 252.7 6.5-8.9zm-13.8 19l-346-243.8 339.5 252.7 6.5-8.9zm-13.8 19l-346-243.8 339.6 252.7 6.4-8.9zm6.9-9.5l-346-243.8 339.6 252.7 6.4-8.9zm-13.7 19L102 223.1l339.5 252.7 6.5-8.9zm-13.8 19l-346-243.8 339.5 252.7 6.5-8.9zm-13.8 19l-346-243.8L414 513.8l6.4-8.9zm20.7-28.5l-346-243.8 339.5 252.7 6.5-8.9zm-13.8 19l-346-243.8 339.6 252.7 6.4-8.9zm-13.7 19l-346-243.8 339.5 252.7 6.5-8.9zm-13.8 19l-346-243.9 339.5 252.8 6.5-8.9zm6.9-9.5L60.7 280l339.5 252.8 6.5-8.9zm-13.8 19L46.9 299l339.6 252.8 6.4-8.9zm-13.7 19L33.2 318l339.5 252.8 6.5-8.9zm-13.8 19L19.4 337l339.5 252.8 6.5-8.9zm20.6-28.5L40 308.5l339.6 252.8 6.4-8.9zm-13.7 19l-346-243.9 339.5 252.8 6.5-8.9zm-20.7 28.5L5.6 356l339.6 252.8 6.4-8.9zm-13.7 19L-8.1 375l339.5 252.8 6.5-8.9zm20.6-28.5l-346-243.9 339.6 252.8 6.4-8.9zm-13.7 19l-346-243.9 339.5 252.8 6.5-8.9zm-20.7 28.5L-21.9 394l339.6 252.8 6.4-8.9zm-13.7 19L-35.6 413l339.5 252.8 6.5-8.9zm20.6-28.5L-15 384.5l339.5 252.8 6.5-8.9zm-13.8 19l-346-243.9 339.6 252.8 6.4-8.9zm-13.7 19l-346-243.9L297 675.3l6.5-8.9zm-6.9 9.5L-49.4 432l339.5 252.8 6.5-8.9z"/></g></g></svg>