<svg xmlns="http://www.w3.org/2000/svg" id="Layer_1" x="0" y="0" version="1.1" viewBox="0 0 500 500" xml:space="preserve" fill="currentColor"><style>.st1{fill:#055d64}.st3{fill:#fff}.st4{fill:#f9ad42}</style><circle cx="252.3" cy="270.7" r="172.7"/><path d="M47.5 397.5c-1-1.5-1.9-3.1-2.9-4.7l4-2.4c.9 1.5 1.9 3.1 2.8 4.6l-3.9 2.5zm-11.8-21.2c-2.8-5.6-5.3-11.4-7.6-17.2l4.3-1.7c2.3 5.7 4.8 11.3 7.5 16.8l-4.2 2.1zm-13.9-34.9c-1.8-6-3.5-12.1-4.8-18.2l4.5-1c1.3 6 2.9 12 4.8 17.8l-4.5 1.4zm-8.3-36.7c-.9-6.2-1.5-12.5-1.9-18.7l4.6-.3c.4 6.1 1 12.3 1.9 18.3l-4.6.7zm-2.3-37.5c.1-6.2.4-12.5 1-18.8l4.6.4c-.6 6.1-.9 12.3-1 18.4h-4.6zm8-36.6l-4.6-.8c1.1-6.2 2.4-12.3 3.9-18.4l4.5 1.1c-1.4 6-2.7 12.1-3.8 18.1zm9.1-35.7l-4.4-1.5c2-5.9 4.3-11.8 6.7-17.5l4.3 1.8c-2.4 5.7-4.6 11.4-6.6 17.2zm14.6-33.8l-4.1-2.2c2.9-5.5 6.1-11 9.4-16.3l3.9 2.5c-3.3 5.3-6.4 10.6-9.2 16zM62.6 130l-3.7-2.8c3.7-5 7.7-9.9 11.9-14.6l3.5 3.1c-4.1 4.6-8 9.4-11.7 14.3zm299.2 352.4l-2.2-4.1c5.4-2.9 10.8-6 15.9-9.3l2.5 3.9c-5.2 3.4-10.6 6.6-16.2 9.5zm31.7-20.2l-2.8-3.7c4.9-3.7 9.7-7.6 14.2-11.7l3.1 3.5c-4.6 4.1-9.5 8.1-14.5 11.9zm28.1-25l-3.4-3.2c4.2-4.4 8.4-9 12.2-13.8l3.6 3c-3.9 4.8-8.1 9.5-12.4 14zm23.8-29l-3.8-2.7c3.5-5 6.9-10.2 10-15.5l4 2.4c-3.2 5.4-6.6 10.7-10.2 15.8zm19.1-32.3l-4.2-2c2.7-5.5 5.2-11.2 7.5-16.9l4.3 1.7c-2.3 5.8-4.9 11.6-7.6 17.2zm13.8-34.9l-4.4-1.4c1.8-5.9 3.4-11.9 4.7-17.8l4.5 1c-1.3 6.1-2.9 12.2-4.8 18.2zm8.3-36.7l-4.6-.7c.5-3.2.8-6.5 1.2-9.7.3-2.9.5-5.8.7-8.6l4.6.3c-.2 2.9-.4 5.9-.7 8.8l-1.2 9.9zm-2.4-37.4c-.1-6.1-.5-12.3-1.1-18.4l4.6-.5c.6 6.2 1 12.5 1.1 18.7l-4.6.2zm-3.7-36.6c-1.1-6-2.4-12.1-4-18l4.5-1.2c1.6 6 2.9 12.2 4 18.3l-4.5.9zm-9.3-35.6c-2-5.8-4.3-11.5-6.7-17.2l4.3-1.9c2.5 5.7 4.8 11.6 6.8 17.5l-4.4 1.6zm-14.7-33.8c-2.9-5.4-6-10.8-9.3-15.9l3.9-2.5c3.3 5.3 6.5 10.7 9.4 16.2l-4 2.2zm-19.7-31.1c-3.7-4.9-7.6-9.7-11.6-14.3l3.5-3.1c4.1 4.7 8.1 9.6 11.8 14.6l-3.7 2.8zm-24.2-27.7c-4.4-4.3-9-8.4-13.7-12.4l3-3.6c4.8 4 9.5 8.2 13.9 12.6l-3.2 3.4zm-28.3-23.6c-5-3.5-10.2-6.9-15.4-10.1l2.4-4c5.4 3.2 10.7 6.6 15.8 10.3l-2.8 3.8zm-31.6-18.9c-5.5-2.7-11.2-5.2-16.8-7.4l1.7-4.3c5.8 2.3 11.6 4.8 17.2 7.6l-2.1 4.1zm-34.3-13.5c-5.8-1.8-11.8-3.3-17.8-4.6l1-4.5c6.1 1.3 12.2 2.9 18.2 4.7l-1.4 4.4z" class="st1"/><path d="M174.9 325.2c-6.6.7-12.8 2.8-18.5 6.1-7.4 4.2-13.2 10.1-17.5 17.5-4.2 7.4-6.4 15.5-6.4 24.2v24.8h96.2V373c0-2.6-.2-5.2-.6-7.7h-53.2v-40.1zm-63.7 83.4c-1.4 1.4-2.1 3.1-2.1 5.2v70.1c0 2.1.7 3.8 2.1 5.2 1.4 1.4 3.1 2.1 5.2 2.1h128.4c2.1 0 3.8-.7 5.2-2.1 1.4-1.4 2.1-3.1 2.1-5.2v-70.1c0-2.1-.7-3.8-2.1-5.2-1.4-1.4-3.1-2.1-5.2-2.1H116.3c-2 .1-3.8.8-5.1 2.1zm63.5 28.6c0-1.6.6-2.9 1.8-4.1 1.2-1.2 2.5-1.8 4.1-1.8 1.6 0 2.9.6 4.1 1.8 1.2 1.2 1.8 2.5 1.8 4.1v23.4c0 1.6-.6 2.9-1.8 4.1-1.2 1.2-2.5 1.8-4.1 1.8-1.6 0-2.9-.6-4.1-1.8-1.2-1.2-1.8-2.5-1.8-4.1v-23.4z"/><path d="M226.6 358.8c-1-3.5-2.5-6.8-4.3-10-4.2-7.4-10.1-13.2-17.5-17.5-7.1-4.1-15-6.2-23.4-6.4v33.9h45.2z" class="st3"/><path d="M229.9 344.8c2.6 4.4 4.5 9.1 5.8 13.9h178.9V259H181.4v57c10 .1 19.4 2.7 27.9 7.8 8.6 5.2 15.5 12.3 20.6 21zm132.4-41.9c4 1.4 6.9 2.6 8.7 3.7-.5-4.5-.7-7.7-.8-9.4h5.5c-.1 2.5-.4 5.6-.9 9.3 2.6-1.3 5.5-2.5 8.9-3.6l1.7 5.3c-3.2 1.1-6.3 1.8-9.4 2.1 1.5 1.3 3.7 3.7 6.5 7.1l-4.5 3.2c-1.5-2-3.2-4.7-5.2-8.1-1.9 3.5-3.5 6.2-4.9 8.1l-4.4-3.2c2.9-3.6 5-6 6.3-7.1-3.2-.6-6.3-1.3-9.2-2.1l1.7-5.3zm-30 0c4 1.4 6.9 2.6 8.7 3.7-.5-4.5-.7-7.7-.8-9.4h5.5c-.1 2.5-.4 5.6-.9 9.3 2.6-1.3 5.5-2.5 8.9-3.6l1.7 5.3c-3.2 1.1-6.3 1.8-9.4 2.1 1.5 1.3 3.7 3.7 6.5 7.1l-4.5 3.2c-1.5-2-3.2-4.7-5.2-8.1-1.9 3.5-3.5 6.2-4.9 8.1l-4.4-3.2c2.9-3.6 5-6 6.3-7.1-3.2-.6-6.3-1.3-9.2-2.1l1.7-5.3zm-30 0c4 1.4 6.9 2.6 8.7 3.7-.5-4.5-.7-7.7-.8-9.4h5.5c-.1 2.5-.4 5.6-.9 9.3 2.6-1.3 5.5-2.5 8.9-3.6l1.7 5.3c-3.2 1.1-6.3 1.8-9.4 2.1 1.5 1.3 3.7 3.7 6.5 7.1l-4.5 3.2c-1.5-2-3.2-4.7-5.2-8.1-1.9 3.5-3.5 6.2-4.9 8.1l-4.4-3.2c2.9-3.6 5-6 6.3-7.1-3.2-.6-6.3-1.3-9.2-2.1l1.7-5.3zm-30 0c4 1.4 6.9 2.6 8.7 3.7-.5-4.5-.7-7.7-.8-9.4h5.5c-.1 2.5-.4 5.6-.9 9.3 2.6-1.3 5.5-2.5 8.9-3.6l1.7 5.3c-3.2 1.1-6.3 1.8-9.4 2.1 1.5 1.3 3.7 3.7 6.5 7.1l-4.5 3.2c-1.5-2-3.2-4.7-5.2-8.1-1.9 3.5-3.5 6.2-4.9 8.1l-4.4-3.2c2.9-3.6 5-6 6.3-7.1-3.2-.6-6.3-1.3-9.2-2.1l1.7-5.3zm-30.1 0c4 1.4 6.9 2.6 8.7 3.7-.5-4.5-.7-7.7-.8-9.4h5.5c-.1 2.5-.4 5.6-.9 9.3 2.6-1.3 5.5-2.5 8.9-3.6l1.7 5.3c-3.2 1.1-6.3 1.8-9.4 2.1 1.5 1.3 3.7 3.7 6.5 7.1l-4.5 3.2c-1.5-2-3.2-4.7-5.2-8.1-1.9 3.5-3.5 6.2-4.9 8.1l-4.4-3.2c2.9-3.6 5-6 6.3-7.1-3.2-.6-6.3-1.3-9.2-2.1l1.7-5.3zm-30 0c4 1.4 6.9 2.6 8.7 3.7-.5-4.5-.7-7.7-.8-9.4h5.5c-.1 2.5-.4 5.6-.9 9.3 2.6-1.3 5.5-2.5 8.9-3.6l1.7 5.3c-3.2 1.1-6.3 1.8-9.4 2.1 1.5 1.3 3.7 3.7 6.5 7.1l-4.5 3.2c-1.5-2-3.2-4.7-5.2-8.1-1.9 3.5-3.5 6.2-4.9 8.1l-4.4-3.2c2.9-3.6 5-6 6.3-7.1-3.2-.6-6.3-1.3-9.2-2.1l1.7-5.3z" class="st3"/><path d="M178.1 324.9c-1.1.1-2.2.1-3.3.3v40.1H228l-.6-3.3h-49.3v-37.1zm243-72.4H174.9v63.7c1.1-.1 2.2-.2 3.3-.2v-60.3h239.7V362H236.4c.2 1.1.4 2.2.5 3.3H421V252.5z" class="st1"/><path d="M181.4 316v-57h233.2v99.7H235.7c.3 1.1.5 2.2.8 3.3h181.4V255.8H178.1V316c.9 0 1.8-.1 2.6-.1.3.1.5.1.7.1zm0 42.8v-33.9h-.8c-.8 0-1.6 0-2.5.1v37h49.3c-.2-1.1-.5-2.2-.9-3.3h-45.1z" class="st1"/><path d="M213.5 317.4l4.4 3.2c1.4-1.9 3-4.6 4.9-8.1 2 3.4 3.7 6.1 5.2 8.1l4.5-3.2c-2.8-3.4-4.9-5.8-6.5-7.1 3.1-.4 6.2-1.1 9.4-2.1l-1.7-5.3c-3.3 1.1-6.3 2.3-8.9 3.6.5-3.7.8-6.9.9-9.3h-5.5c0 1.7.3 4.8.8 9.4-1.8-1-4.7-2.2-8.7-3.7l-1.7 5.3c2.9.8 6 1.5 9.2 2.1-1.3 1.2-3.4 3.6-6.3 7.1zm30 0l4.4 3.2c1.4-1.9 3-4.6 4.9-8.1 2 3.4 3.7 6.1 5.2 8.1l4.5-3.2c-2.8-3.4-4.9-5.8-6.5-7.1 3.1-.4 6.2-1.1 9.4-2.1l-1.7-5.3c-3.3 1.1-6.3 2.3-8.9 3.6.5-3.7.8-6.9.9-9.3h-5.5c0 1.7.3 4.8.8 9.4-1.8-1-4.7-2.2-8.7-3.7l-1.7 5.3c2.9.8 6 1.5 9.2 2.1-1.3 1.2-3.4 3.6-6.3 7.1zm30 0l4.4 3.2c1.4-1.9 3-4.6 4.9-8.1 2 3.4 3.7 6.1 5.2 8.1l4.5-3.2c-2.8-3.4-4.9-5.8-6.5-7.1 3.1-.4 6.2-1.1 9.4-2.1l-1.7-5.3c-3.3 1.1-6.3 2.3-8.9 3.6.5-3.7.8-6.9.9-9.3h-5.5c0 1.7.3 4.8.8 9.4-1.8-1-4.7-2.2-8.7-3.7l-1.7 5.3c2.9.8 6 1.5 9.2 2.1-1.3 1.2-3.4 3.6-6.3 7.1zm30 0l4.4 3.2c1.4-1.9 3-4.6 4.9-8.1 2 3.4 3.7 6.1 5.2 8.1l4.5-3.2c-2.8-3.4-4.9-5.8-6.5-7.1 3.1-.4 6.2-1.1 9.4-2.1l-1.7-5.3c-3.3 1.1-6.3 2.3-8.9 3.6.5-3.7.8-6.9.9-9.3h-5.5c0 1.7.3 4.8.8 9.4-1.8-1-4.7-2.2-8.7-3.7l-1.7 5.3c2.9.8 6 1.5 9.2 2.1-1.3 1.2-3.4 3.6-6.3 7.1zm30 0l4.4 3.2c1.4-1.9 3-4.6 4.9-8.1 2 3.4 3.7 6.1 5.2 8.1l4.5-3.2c-2.8-3.4-4.9-5.8-6.5-7.1 3.1-.4 6.2-1.1 9.4-2.1l-1.7-5.3c-3.3 1.1-6.3 2.3-8.9 3.6.5-3.7.8-6.9.9-9.3h-5.5c0 1.7.3 4.8.8 9.4-1.8-1-4.7-2.2-8.7-3.7l-1.7 5.3c2.9.8 6 1.5 9.2 2.1-1.3 1.2-3.3 3.6-6.3 7.1zm30.1 0l4.4 3.2c1.4-1.9 3-4.6 4.9-8.1 2 3.4 3.7 6.1 5.2 8.1l4.5-3.2c-2.8-3.4-4.9-5.8-6.5-7.1 3.1-.4 6.2-1.1 9.4-2.1l-1.7-5.3c-3.3 1.1-6.3 2.3-8.9 3.6.5-3.7.8-6.9.9-9.3h-5.5c0 1.7.3 4.8.8 9.4-1.8-1-4.7-2.2-8.7-3.7l-1.7 5.3c2.9.8 6 1.5 9.2 2.1-1.3 1.2-3.4 3.6-6.3 7.1zm-183 149c1.6 0 2.9-.6 4.1-1.8 1.2-1.2 1.8-2.5 1.8-4.1v-23.4c0-1.6-.6-2.9-1.8-4.1-1.2-1.2-2.5-1.8-4.1-1.8-1.6 0-2.9.6-4.1 1.8-1.2 1.2-1.8 2.5-1.8 4.1v23.4c0 1.6.6 2.9 1.8 4.1 1.1 1.2 2.5 1.8 4.1 1.8z" class="st1"/><path d="M228.7 372.9v24.8h-96.2v-24.8c0-8.7 2.1-16.9 6.4-24.2 4.2-7.4 10.1-13.2 17.5-17.5 5.7-3.3 11.9-5.3 18.5-6.1v-8.9c-8.1.8-15.7 3.3-22.8 7.4-8.7 5.1-15.8 12.1-20.8 20.8-5.1 8.7-7.7 18.3-7.7 28.5v24.8h-7.2c-4.5 0-8.3 1.5-11.4 4.7-3.2 3.2-4.7 6.9-4.7 11.4v70.1c0 4.5 1.5 8.3 4.7 11.4 3.2 3.2 6.9 4.7 11.4 4.7h128.4c4.5 0 8.3-1.5 11.4-4.7 3.2-3.2 4.7-6.9 4.7-11.4v-70.1c0-4.5-1.5-8.3-4.7-11.4-3.2-3.2-6.9-4.7-11.4-4.7h-7.2v-24.4c0-2.7-.2-5.4-.6-8h-8.9c.4 2.5.6 5 .6 7.6zm16.1 33.7c2.1 0 3.8.7 5.2 2.1 1.4 1.4 2.1 3.1 2.1 5.2V484c0 2.1-.7 3.8-2.1 5.2-1.4 1.4-3.1 2.1-5.2 2.1H116.3c-2.1 0-3.8-.7-5.2-2.1-1.4-1.4-2.1-3.1-2.1-5.2v-70.1c0-2.1.7-3.8 2.1-5.2 1.4-1.4 3.1-2.1 5.2-2.1h128.5z" class="st1"/><path d="M222.3 348.7c1.8 3.2 3.3 6.6 4.3 10h9.1c-1.3-4.8-3.2-9.5-5.8-13.9-5.1-8.8-12-15.8-20.7-21-8.4-5.1-17.8-7.7-27.9-7.8v8.9c8.4.1 16.3 2.3 23.4 6.4 7.5 4.2 13.3 10.1 17.6 17.4z" class="st3"/><path d="M178.1 324.9V316c-1.1 0-2.2.1-3.3.2v8.9c1.1 0 2.2-.1 3.3-.2zm49.4 37.1l.6 3.3h8.9c-.2-1.1-.3-2.2-.5-3.3h-9zm-46.9-37.2h.8V316h-.6c-.9 0-1.8 0-2.6.1v8.9c.7-.1 1.5-.2 2.4-.2z" class="st1"/><path d="M226.6 358.8l.9 3.3h9c-.2-1.1-.5-2.2-.8-3.3h-9.1z" class="st1"/><path d="M186.5 0c-46 0-83.3 37.4-83.3 83.3s37.4 83.3 83.3 83.3 83.3-37.4 83.3-83.3S232.4 0 186.5 0zm76.6 83.3c0 42.2-34.4 76.6-76.6 76.6-42.2 0-76.6-34.4-76.6-76.6 0-42.2 34.4-76.6 76.6-76.6 42.2 0 76.6 34.4 76.6 76.6z" class="st4"/><path d="M177.6 115.1c-2.5 3.1-7 3.6-10 1.1L142.3 96l-4.2 5.3 25.3 20.2c2.4 1.9 5.5 3 8.6 3 4.3 0 8.2-1.9 10.9-5.2l52.4-65.4-5.2-4.2-52.5 65.4z" class="st4"/></svg>