<svg xmlns="http://www.w3.org/2000/svg" viewBox="0 0 500 500" fill="currentColor"><path d="M437.5 0c16.9 0 31.6 6.2 43.9 18.6s18.6 27 18.6 43.9v281.2c0 16.9-6.2 31.6-18.6 43.9s-27 18.6-43.9 18.6H296.9L174.8 498c-2 1.3-4.4 2-7.3 2s-5.5-1.1-7.8-3.4-3.4-5.1-3.4-8.3v-82H62.5c-16.9 0-31.6-6.2-43.9-18.6S0 360.7 0 343.8V62.5c0-16.9 6.2-31.6 18.6-43.9S45.6 0 62.5 0h375zm15.6 343.8V62.5c0-4.6-1.5-8.3-4.4-11.2s-6.7-4.4-11.2-4.4h-375c-4.6 0-8.3 1.5-11.2 4.4s-4.4 6.7-4.4 11.2v281.2c0 4.6 1.5 8.3 4.4 11.2s6.7 4.4 11.2 4.4h140.6V418l78.1-58.6h156.2c4.6 0 8.3-1.5 11.2-4.4s4.5-6.7 4.5-11.2zm-93.7-211c4.6 0 8.3 1.5 11.2 4.4s4.4 6.7 4.4 11.2V164c0 4.6-1.5 8.3-4.4 11.2s-6.7 4.4-11.2 4.4H140.6c-4.6 0-8.3-1.5-11.2-4.4s-4.4-6.7-4.4-11.2v-15.6c0-4.6 1.5-8.3 4.4-11.2s6.7-4.4 11.2-4.4h218.8zm-93.8 93.8c4.6 0 8.3 1.5 11.2 4.4s4.4 6.7 4.4 11.2v15.6c0 4.6-1.5 8.3-4.4 11.2s-6.7 4.4-11.2 4.4h-125c-4.6 0-8.3-1.5-11.2-4.4s-4.4-6.7-4.4-11.2v-15.6c0-4.6 1.5-8.3 4.4-11.2s6.7-4.4 11.2-4.4h125z"/></svg>