<svg xmlns="http://www.w3.org/2000/svg" viewBox="0 0 500 500" fill="currentColor"><path d="M496.5 270c2.3 2.3 3.5 4.9 3.5 7.8s-1.2 5.5-3.5 7.8l-61.6 62.5c-3.5 3.5-7.4 4.3-11.7 2.6-4.3-1.7-6.5-4.9-6.5-9.5v-42.5H149.3c-2.9 0-5.4-1-7.4-3s-3-4.5-3-7.4v-20.8c0-2.9 1-5.4 3-7.4s4.5-3 7.4-3h142.4v-76.4h-90.3c-5.8 0-10.7-2-14.8-6.1-4.1-4.1-6.1-9-6.1-14.8V69.4H41.7v361.1h250v-90.3h41.7v90.3c0 11.6-4.1 21.4-12.2 29.5-8.1 8.1-17.9 12.2-29.5 12.2h-250c-11.6 0-21.4-4.1-29.5-12.2C4.1 452 0 442.1 0 430.6V69.4C0 57.9 4.1 48 12.2 39.9s17.9-12.2 29.5-12.2h177.1c11.6 0 21.4 4.1 29.5 12.2l72.9 72.9c8.1 8.1 12.2 17.9 12.2 29.5v114.6h83.3v-42.5c0-4.6 2.2-7.8 6.5-9.5 4.3-1.7 8.2-.9 11.7 2.6l61.6 62.5zM222.2 138.9h66l-66-66v66z"/></svg>