<svg xmlns="http://www.w3.org/2000/svg" xmlns:xlink="http://www.w3.org/1999/xlink" viewBox="0 0 323.6 424.1" fill="currentColor"><defs><path id="a" d="M323.6 423.2H0V0l161.8 117.6L323.6 0z"/></defs><clipPath id="b"><use overflow="visible" xlink:href="#a"/></clipPath><g clip-path="url(#b)"><path d="M-410.2 80.3l346-243.8-339.5 252.8zm6.9 9.5l222.2-153.1-215.8 162.1zm13.8 19l222.2-153.1-215.8 162.1zm13.7 19l222.3-153.1-215.8 162zm-20.6-28.5l222.2-153.1L-390 108.3zm13.8 19l222.2-153.1-215.8 162.1zm13.7 19l222.2-153.2-215.8 162.1zm13.8 19L-132.9 3.1l-215.8 162.1zm-6.9-9.5L-139.8-6.4l-215.8 162.1zm13.7 19L-126 12.6l-215.8 162.1zm13.8 19l222.2-153.2-215.8 162.1zm13.8 19L-98.5 50.6l-215.8 162.1zm-20.7-28.5l222.3-153.2-215.8 162.1zm13.8 19l222.2-153.2-215.8 162.1zm13.8 19L-91.6 60.1l-215.8 162.1zm13.7 19l346-243.8-339.5 252.7zm-6.9-9.5L-84.7 69.6l-215.8 162.1zm13.8 19L52.8-2l-339.6 252.7zm13.7 19L66.5 17-273 269.7zm13.8 19L80.3 36l-339.6 252.7zm-20.6-28.5L59.6 7.5l-339.5 252.7zm13.7 19l346-243.8-339.5 252.7zm20.7 28.5L94.1 55l-339.6 252.7zm13.7 19l346-243.9-339.5 252.8zm-20.6-28.5l346-243.8-339.6 252.7zm13.7 19l346-243.9-339.5 252.8zm20.7 28.5l346-243.9L-218 345.7zm13.7 19l346-243.9-339.5 252.8zm-20.6-28.5l346-243.9-339.5 252.8zm13.8 19l346-243.9-339.6 252.8zm13.7 19l346-243.9-339.5 252.8zm6.9 9.5l346-243.9-339.5 252.8zm10.6 6.6l346-243.8-339.5 252.7zm6.9 9.5l346-243.8-339.5 252.7zm13.8 19l346-243.8-339.6 252.7zm13.7 19l346-243.8-339.5 252.7zm-20.6-28.5l346-243.8-339.6 252.7zm13.7 19l346-243.8-339.5 252.7zm13.8 19l346-243.8-339.5 252.7zm13.8 19l346-243.8-339.6 252.7zm-6.9-9.5l346-243.8-339.6 252.7zm13.7 19l346-243.8-339.5 252.7zm13.8 19l346-243.8-339.5 252.7zm13.8 19l346-243.8-339.6 252.7zm-20.7-28.5l346-243.8L-111 485.3zm13.8 19l346-243.8-339.6 252.7zm13.7 19l346-243.8-339.5 252.7zm13.8 19l346-243.9-339.5 252.8zm-6.9-9.5l346-243.9-339.5 252.8zm13.8 19l346-243.9-339.6 252.8zm13.7 19l346-243.9-339.5 252.8zm13.8 19l346-243.9-339.5 252.8zm-20.6-28.5l346-243.9L-56 561.3zm13.7 19l346-243.9-339.5 252.8zm20.7 28.5L318 356-21.6 608.8zm13.7 19l346-243.9L-7.8 627.8zm-20.6-28.5l346-243.9-339.6 252.8zm13.7 19l346-243.9-339.5 252.8zm20.7 28.5l346-243.9L5.9 646.8zm13.7 19l346-243.9L19.7 665.8zm-20.6-28.5l346-243.9L-.9 637.3zm13.8 19l346-243.9L12.8 656.3zm13.7 19l346-243.9L26.6 675.3zm6.9 9.5L373 432 33.5 684.8z"/></g></svg>