<svg xmlns="http://www.w3.org/2000/svg" id="Layer_1" x="0" y="0" version="1.1" viewBox="0 0 500 500" xml:space="preserve" fill="currentColor"><style>.st0{fill:#231f20}</style><path d="M499.7 368.3c.1-9.3.1-18.6.1-27.9V108.7c0-14.6-.1-29.2 0-43.7.3-8.6-2.5-17-7.7-23.6-7.1-9.7-18.4-15.5-30.4-15.5H329.2c-5.9-.5-11.3 2.4-14.2 7.2-3.2 4.7-3.5 10.8-.7 15.5 2.6 5.2 8 8.5 13.6 8.5h134.7c5.6 0 5.9.3 6.1 6v64.2c0 .7-.1 1.4-.2 2.1 0 .2 0 .4-.1.7h-136c-2.6.1-5.3.2-8 .7-7.1 1.5-12.2 7.9-12 15-.1 7.3 5 13.6 12.2 15 2.4.5 5.2.7 7.4.6h133c.8 0 1.7.1 2.6.1h.7v176.7H332.1c-2.3 0-5.1.2-7.5.6-7.1 1.4-12.2 7.7-12.1 14.9-.2 7.3 4.8 13.7 12.1 15.1 3.5.6 7 1 10.6.7H466c.8 0 1.5.1 2.3.1h.3c.1.4.1.7.1 1.1v65.7c0 .5-.1 1-.1 1.4 0 .6-.1 1.2-.1 1.6-.1 1.4-1.1 2.6-2.6 2.7-1.4.2-2.9.2-4.4.2h-96.6c-4.1 0-8.2 0-12.2-.1-8.3-.1-16.5-.1-24.6.1-3.1.1-5.6.7-8 2.2-3.5 2.1-6 5.5-7 9.5s-.4 8.1 1.7 11.6c3.1 5.3 9.2 8.5 15 7.7 11.3 0 22.6-.1 33.9-.1 31.9-.1 64.8-.3 97.5.3 21.1-.7 38.2-17.9 39-39.1-.7-21.7-.6-44.3-.5-66.1zm-222.4-68.6c-8.1-.7-15.3 4.6-16.6 12.5-.4 2.3-.5 4.6-.5 6.8v120.1c0 1-.1 1.9-.1 2.8v.6H162c-1-31.5-.9-354.7 0-384.5h98v123.4c-.1 3.1.3 6.2 1.2 9.4 2.4 6.9 9.5 11 16.5 9.9 7-.8 12.4-6.3 13.2-13.3.2-1.9.2-3.8.2-5.6V78.1c0-2.8 0-5.7-.1-8.5-.1-7.5-.1-15.3.3-22.4.4-1.9.5-3.8.3-5.6-1.1-9.5-9.7-16.4-19-15.2-20.6.2-41.2.2-61.9.1-10.3 0-20.7-.1-31-.1h-34.8c-7.8 0-14.3 5.9-14.9 13.6-.3 2.1-.4 4.2-.3 6.2v69.4c.2 113.4.2 226.7 0 339.9-.1 1-.1 2.1 0 3.1.4 4.6 2.6 8.7 6.2 11.6 3.1 2.6 7 4 10.8 4 .5 0 1.1 0 1.6-.1 40.5-.4 81.6-.4 122.2 0 7.1.1 12.5-1.4 15.9-4.8 3.4-3.4 5-8.5 5-16.2-.2-23.1-.1-46.2-.1-69.4 0-11.6.1-23.1.1-34.7v-7.3c0-9.1 0-18.3-.2-27.4 0-7.9-6.2-14.3-13.9-14.6zM31.6 369.8c1.1-.1 2.1-.1 3.1-.1h55.5c2.3.2 4.7-.1 7-.5 7.2-1.4 12.3-7.4 12.5-14.7.2-7.5-5-14-12.4-15.5-2.2-.4-4.7-.7-6.9-.5h-55c-.9 0-1.8-.1-2.8-.1-.2 0-.4 0-.6-.1v-72.7h61.5c2.6 0 4.8-.4 6.9-1.3 7.7-3.5 11.3-12.6 7.8-20.3-2.6-6.2-8.9-10-15.4-9.5H32.2c-1.1-24.2-1-48.7.3-72.9h57.4c2.7 0 5.4-.2 8.2-.8.4-.1.8-.2 1.2-.4 3.8-1.4 6.9-4.2 8.6-7.9s1.9-7.9.5-11.6c-2.5-7-9.7-11.5-16.6-10.5H31.4c-.1-1-.1-1.9-.1-2.9V59.9c0-.7.2-1.4.7-1.9.5-.5 1.1-.8 2-.8 1.6-.2 3.3-.2 5.1-.2h53.2c.5 0 1 .1 1.5.1 8.6-.1 15.6-7.3 15.4-16-.5-8.6-7.5-15.2-16.1-15.2h-.6c-14 .2-28 .2-42 .2H36.3c-2.5 0-4.9.3-7.4.9-17.1 4.5-29 19.9-29 37.6V373c0 7.1 0 14.2-.1 21.3-.1 14.2-.1 28.5.1 42.8.8 20.1 17.2 36.1 37.3 36.5l29.7.1c4.4 0 8.7.1 13.1.1s8.8 0 13.1-.1c3 .5 6.2-.7 8.8-2.3 3.5-2.2 5.9-5.6 6.8-9.6.9-4 .2-8.1-2-11.6-3.1-5.2-8.7-8.1-14.6-7.5h-54c-6.5 0-6.6-.1-6.6-6.4v-64.6c-.1-.7 0-1.3.1-1.9z" class="st0"/><path d="M242.8 234.6c-6.4 0-12.8-.1-19.2 0h-.7c-4 .2-7.7 1.9-10.4 4.8s-4.1 6.8-4 10.9c0 4.1 1.5 7.9 4.4 10.8 2.9 2.9 6.7 4.5 10.8 4.5h144.8l-.2.2-25.1 25.3c-4.4 4.2-5.9 10.6-3.8 16.1 1.7 5.6 6.6 9.7 12.3 10.3.8.1 1.5.2 2.2.2 4.9 0 9.5-2.1 12.5-5.8 16.8-16.6 33.5-33.3 50.1-49.9.7-.6 1.4-1.3 2-2 5.5-6.6 4.6-16.4-1.9-21.7l-3.3-3.2c-1.6-1.5-3.2-3-4.7-4.6l-42.1-42.1c-3.7-4.4-9.3-6.5-15-5.7-5.8.8-10.6 5-12.2 10.5-2 5.7-.4 12.1 3.9 16.2 8.5 8.4 16.9 16.9 25.3 25.3H252.4l-9.6-.1z" class="st0"/></svg>