<svg version="1.1" xmlns="http://www.w3.org/2000/svg" xmlns:xlink="http://www.w3.org/1999/xlink" x="0" y="0" viewBox="0 0 323.6 424.1" xml:space="preserve">
  <g>
    <g id="Layer_1-2">
      <defs>
        <path id="lines_1" d="M323.6 423.2H0V0l161.8 117.6L323.6 0z"/>
      </defs>
      <clipPath id="lines_2">
        <use xlink:href="#lines_1" overflow="visible"/>
      </clipPath>
      <g clip-path="url(#lines_2)">
        <path fill="#f9ad42" d="M-410.2 80.3l346-243.8-339.5 252.8zM-403.3 89.8l222.2-153.1-215.8 162.1zM-389.5 108.8l222.2-153.1-215.8 162.1zM-375.8 127.8l222.3-153.1-215.8 162zM-396.4 99.3l222.2-153.1L-390 108.3zM-382.6 118.3l222.2-153.1-215.8 162.1zM-368.9 137.3l222.2-153.2-215.8 162.1zM-355.1 156.3L-132.9 3.1l-215.8 162.1zM-362 146.8L-139.8-6.4l-215.8 162.1zM-348.3 165.8L-126 12.6l-215.8 162.1zM-334.5 184.8l222.2-153.2-215.8 162.1zM-320.7 203.8L-98.5 50.6l-215.8 162.1zM-341.4 175.3l222.3-153.2-215.8 162.1zM-327.6 194.3l222.2-153.2-215.8 162.1zM-313.8 213.3L-91.6 60.1l-215.8 162.1zM-300.1 232.3l346-243.8-339.5 252.7zM-307 222.8L-84.7 69.6l-215.8 162.1zM-293.2 241.8L52.8-2l-339.6 252.7zM-279.5 260.8L66.5 17-273 269.7zM-265.7 279.8L80.3 36l-339.6 252.7zM-286.3 251.3L59.6 7.5l-339.5 252.7zM-272.6 270.3l346-243.8-339.5 252.7zM-251.9 298.8L94.1 55l-339.6 252.7zM-238.2 317.8l346-243.9-339.5 252.8zM-258.8 289.3l346-243.8-339.6 252.7zM-245.1 308.3l346-243.9-339.5 252.8zM-224.4 336.8l346-243.9L-218 345.7zM-210.7 355.8l346-243.9-339.5 252.8zM-231.3 327.3l346-243.9-339.5 252.8zM-217.5 346.3l346-243.9-339.6 252.8zM-203.8 365.3l346-243.9-339.5 252.8zM-196.9 374.8l346-243.9-339.5 252.8zM-186.3 381.4l346-243.8-339.5 252.7zM-179.4 390.9l346-243.8-339.5 252.7zM-165.6 409.9l346-243.8-339.6 252.7zM-151.9 428.9l346-243.8-339.5 252.7zM-172.5 400.4l346-243.8-339.6 252.7zM-158.8 419.4l346-243.8-339.5 252.7zM-145 438.4l346-243.8-339.5 252.7zM-131.2 457.4l346-243.8-339.6 252.7zM-138.1 447.9l346-243.8-339.6 252.7zM-124.4 466.9l346-243.8-339.5 252.7zM-110.6 485.9l346-243.8-339.5 252.7zM-96.8 504.9l346-243.8-339.6 252.7zM-117.5 476.4l346-243.8L-111 485.3zM-103.7 495.4l346-243.8-339.6 252.7zM-90 514.4l346-243.8-339.5 252.7zM-76.2 533.4l346-243.9-339.5 252.8zM-83.1 523.9l346-243.9-339.5 252.8zM-69.3 542.9l346-243.9-339.6 252.8zM-55.6 561.9l346-243.9-339.5 252.8zM-41.8 580.9l346-243.9-339.5 252.8zM-62.4 552.4l346-243.9L-56 561.3zM-48.7 571.4l346-243.9-339.5 252.8zM-28 599.9L318 356-21.6 608.8zM-14.3 618.9l346-243.9L-7.8 627.8zM-34.9 590.4l346-243.9-339.6 252.8zM-21.2 609.4l346-243.9-339.5 252.8zM-.5 637.9l346-243.9L5.9 646.8zM13.2 656.9l346-243.9L19.7 665.8zM-7.4 628.4l346-243.9L-.9 637.3zM6.4 647.4l346-243.9L12.8 656.3zM20.1 666.4l346-243.9L26.6 675.3zM27 675.9L373 432 33.5 684.8z"/>
      </g>
    </g>
  </g>
</svg>
